<?xml version="1.0" encoding="utf-8"?>
<!-- Generator: Adobe Illustrator 16.0.0, SVG Export Plug-In . SVG Version: 6.00 Build 0)  -->
<!DOCTYPE svg PUBLIC "-//W3C//DTD SVG 1.1//EN" "http://www.w3.org/Graphics/SVG/1.1/DTD/svg11.dtd">
<svg version="1.1" id="Layer_1" xmlns="http://www.w3.org/2000/svg" xmlns:xlink="http://www.w3.org/1999/xlink" x="0px" y="0px"
	 width="116.75px" height="84.834px" viewBox="-10.417 -26.667 116.75 84.834"
	 enable-background="new -10.417 -26.667 116.75 84.834" xml:space="preserve">
<path fill="#CFCFCF" d="M87.99,18.232c-0.352-0.162-0.704-0.325-1.043-0.535c-3.94-2.448-5.393-7.386-3.585-11.517l-5.624-3.495
	c-3.366,6.571-1.678,14.575,3.918,19.268l-0.175,3.292c1.013-0.283,2.09-0.407,3.197-0.348c4.996,0.268,8.935,4.179,9.367,9.024
	l7.131,0.38C100.952,26.525,95.453,19.951,87.99,18.232z"/>
<path fill="#CFCFCF" d="M80.009,17.077c-1.304,4.897-5.486,8.48-10.438,8.48c-2.765,0-5.287-1.119-7.208-2.956v9.776
	c2.218,1.011,4.652,1.564,7.208,1.564c9.262,0,16.944-7.299,18.381-16.862h-7.942V17.077z"/>
<path fill="#CFCFCF" d="M68.931-0.665c0,8.706-7.057,15.76-15.763,15.76V8.53c5.077,0,9.193-4.114,9.193-9.191
	c0-5.08-4.116-9.194-9.193-9.194c-5.078,0-9.19,4.115-9.19,9.194h-6.566c0-8.704,7.055-15.761,15.761-15.761
	C61.873-16.427,68.931-9.369,68.931-0.665z"/>
<path fill="#CFCFCF" d="M68.931,28.27c0,8.701-7.057,15.763-15.763,15.763v-6.565c5.077,0,9.193-4.118,9.193-9.197
	c0-5.075-4.116-9.193-9.193-9.193v-6.563C61.873,12.51,68.931,19.567,68.931,28.27z"/>
<path fill="#CFCFCF" d="M73.487,44.679c-1.644,7.288-7.971,12.896-15.797,13.301c-9.427,0.486-17.462-6.763-17.948-16.192
	c-0.485-9.428,6.764-17.463,16.192-17.949c6.365-0.328,12.091,2.869,15.296,7.88l-9.799,0.353l0,0
	c-1.528-0.801-3.281-1.215-5.127-1.121c-5.5,0.286-9.729,4.974-9.443,10.475c0.282,5.496,4.968,9.725,10.469,9.437
	c4.669-0.239,8.418-3.649,9.271-8.04L73.487,44.679z"/>
<rect x="51.846" y="8.49" fill="#CFCFCF" width="4.536" height="10.583"/>
<line fill="none" x1="61.181" y1="-8.425" x2="52.67" y2="-8.425"/>
<path fill="#CFCFCF" d="M60.874-21.742h6.775c0,0,2.148,6.804-4.11,10.634l-6.813-3.796C56.725-14.906,60.751-16.457,60.874-21.742z
	"/>
<g>
	<path fill="#F0F0F0" d="M79.35,16.499c-1.306,4.897-5.485,8.479-10.44,8.479c-2.766,0-5.287-1.116-7.206-2.953v9.78
		c2.216,1.001,4.65,1.559,7.206,1.559c9.26,0,16.944-7.297,18.382-16.861h-7.942L79.35,16.499L79.35,16.499z"/>
	<ellipse fill="#F0F0F0" cx="37.52" cy="12.776" rx="3.776" ry="3.724"/>
	<ellipse fill="#F0F0F0" cx="46.067" cy="12.776" rx="3.776" ry="3.724"/>
	<path fill="#F0F0F0" d="M68.269-1.243c0,8.704-7.058,15.76-15.762,15.76V7.952c5.077,0,9.193-4.114,9.193-9.191
		c0-5.08-4.116-9.194-9.193-9.194c-5.078,0-9.191,4.115-9.191,9.194h-6.568c0-8.704,7.055-15.762,15.76-15.762
		C61.211-17.004,68.269-9.949,68.269-1.243z"/>
	<path fill="#F0F0F0" d="M68.269,27.692c0,8.706-7.058,15.76-15.762,15.76V36.89c5.077,0,9.193-4.115,9.193-9.194
		c0-5.078-4.116-9.194-9.193-9.194v-6.57C61.211,11.932,68.269,18.985,68.269,27.692z"/>
	<path fill="#F0F0F0" d="M72.825,44.101c-1.64,7.284-7.969,12.896-15.792,13.302c-9.43,0.483-17.465-6.763-17.951-16.193
		c-0.485-9.43,6.763-17.462,16.192-17.95c6.365-0.323,12.092,2.871,15.296,7.88l-9.8,0.354l0,0
		c-1.529-0.802-3.284-1.217-5.128-1.125c-5.5,0.289-9.728,4.973-9.443,10.475c0.282,5.499,4.97,9.723,10.47,9.442
		c4.668-0.243,8.419-3.652,9.27-8.04L72.825,44.101z"/>
	<rect x="51.185" y="7.909" fill="#F0F0F0" width="4.534" height="10.585"/>
	<line fill="none" x1="60.52" y1="-9.002" x2="52.01" y2="-9.002"/>
	<path fill="#F0F0F0" d="M60.213-22.32h6.776c0,0,2.146,6.804-4.113,10.633l-6.811-3.798C56.063-15.484,60.09-17.033,60.213-22.32z"
		/>
</g>
<g>
	<path fill="#F0F0F0" d="M3.623,5.523v9.775c0,0.719,0.033,1.538,0.067,2.088H2.387l-0.066-1.403H2.27
		c-0.435,0.903-1.403,1.587-2.724,1.587c-1.955,0-3.477-1.655-3.477-4.11c-0.017-2.69,1.672-4.328,3.626-4.328
		c1.254,0,2.073,0.586,2.439,1.219H2.17V5.523H3.623z M2.17,12.591c0-0.185-0.017-0.435-0.067-0.619
		c-0.217-0.919-1.019-1.687-2.122-1.687c-1.52,0-2.423,1.336-2.423,3.108c0,1.637,0.819,2.99,2.39,2.99
		c0.986,0,1.888-0.667,2.155-1.754c0.05-0.201,0.067-0.401,0.067-0.635V12.591z"/>
	<path fill="#F0F0F0" d="M7.722,7.026c0,0.501-0.351,0.903-0.935,0.903c-0.535,0-0.886-0.401-0.886-0.903s0.368-0.919,0.92-0.919
		C7.354,6.107,7.722,6.508,7.722,7.026z M6.084,17.386V9.298h1.472v8.088H6.084z"/>
	<path fill="#F0F0F0" d="M9.995,11.488c0-0.852-0.033-1.521-0.067-2.189h1.286l0.067,1.32h0.05c0.452-0.769,1.205-1.487,2.557-1.487
		c1.087,0,1.921,0.668,2.273,1.622h0.033c0.25-0.468,0.584-0.802,0.919-1.053c0.485-0.368,1.002-0.569,1.771-0.569
		c1.087,0,2.674,0.703,2.674,3.509v4.746h-1.436v-4.562c0-1.57-0.585-2.49-1.754-2.49c-0.854,0-1.487,0.618-1.755,1.319
		c-0.066,0.218-0.117,0.468-0.117,0.736v4.996H15.06v-4.846c0-1.286-0.569-2.206-1.688-2.206c-0.903,0-1.588,0.734-1.822,1.47
		c-0.084,0.201-0.118,0.468-0.118,0.719v4.862H9.995V11.488z"/>
	<path fill="#F0F0F0" d="M29.62,15.448c0,0.701,0.034,1.388,0.117,1.938h-1.319l-0.118-1.018h-0.05
		c-0.451,0.635-1.319,1.202-2.473,1.202c-1.638,0-2.473-1.153-2.473-2.323c0-1.954,1.737-3.024,4.862-3.007v-0.167
		c0-0.652-0.184-1.872-1.837-1.854c-0.768,0-1.554,0.217-2.122,0.602l-0.334-0.986c0.667-0.418,1.655-0.703,2.673-0.703
		c2.474,0,3.075,1.687,3.075,3.292v3.024H29.62z M28.201,13.26c-1.604-0.034-3.426,0.25-3.426,1.821c0,0.97,0.635,1.404,1.369,1.404
		c1.07,0,1.754-0.668,1.988-1.354c0.051-0.168,0.066-0.334,0.066-0.468V13.26H28.201z"/>
</g>
<path fill="#F0F0F0" d="M87.99,17.449c-0.352-0.162-0.704-0.325-1.043-0.536c-3.94-2.448-5.393-7.385-3.585-11.516l-5.624-3.495
	c-3.366,6.571-1.678,14.575,3.918,19.268l-0.175,3.293c1.013-0.284,2.09-0.409,3.197-0.35c4.996,0.27,8.935,4.181,9.367,9.026
	l7.131,0.38C100.952,25.741,95.453,19.167,87.99,17.449z"/>
</svg>
